HIERARCHY
ROOT Character1_Hips
{
  OFFSET 8.8877 99.7705 -228.878
  CHANNELS 6 Xposition Yposition Zposition Zrotation Xrotation Yrotation
  JOINT Character1_Spine
  {
    OFFSET 0 8.754 -1.339
    CHANNELS 3 Zrotation Xrotation Yrotation
    JOINT Character1_Spine1
    {
      OFFSET 0 10.855 -0.645
      CHANNELS 3 Zrotation Xrotation Yrotation
      JOINT Character1_LeftShoulder
      {
        OFFSET 1.467 27.745 1.178
        CHANNELS 3 Zrotation Xrotation Yrotation
        JOINT Character1_LeftArm
        {
          OFFSET 18.486 -1.858 0.275
          CHANNELS 3 Zrotation Xrotation Yrotation
          JOINT Character1_LeftForeArm
          {
            OFFSET 31.798 2.36 2.921
            CHANNELS 3 Zrotation Xrotation Yrotation
            JOINT Character1_LeftHand
            {
              OFFSET 29.001 1.642 2.112
              CHANNELS 3 Zrotation Xrotation Yrotation
              End Site
              {
                OFFSET 0.269758 0.141128 0.89614
              }
            }
            JOINT L_Radius_RIGMESH
            {
              OFFSET 0.592911 0.209926 -0.435177
              CHANNELS 3 Zrotation Xrotation Yrotation
              End Site
              {
                OFFSET 0 0 0
              }
            }
          }
          JOINT L_Humerus_RIGMESH
          {
            OFFSET 0.000383861 -0.000257932 -6.47351e-005
            CHANNELS 3 Zrotation Xrotation Yrotation
            End Site
            {
              OFFSET 0 0 0
            }
          }
        }
        JOINT L_Shoulder_RIGMESH
        {
          OFFSET 3.24498e-005 -0.000608592 -0.000527677
          CHANNELS 3 Zrotation Xrotation Yrotation
          End Site
          {
            OFFSET 0 0 0
          }
        }
      }
      JOINT Character1_RightShoulder
      {
        OFFSET -1.467 27.745 1.178
        CHANNELS 3 Zrotation Xrotation Yrotation
        JOINT Character1_RightArm
        {
          OFFSET -18.486 -1.858 0.275
          CHANNELS 3 Zrotation Xrotation Yrotation
          JOINT Character1_RightForeArm
          {
            OFFSET -31.798 2.35964 2.92082
            CHANNELS 3 Zrotation Xrotation Yrotation
            JOINT Character1_RightHand
            {
              OFFSET -29.0007 1.64167 2.112
              CHANNELS 3 Zrotation Xrotation Yrotation
              End Site
              {
                OFFSET 161.773 0.141827 0.896322
              }
            }
            JOINT R_Radius_RIGMESH
            {
              OFFSET 104.095 0.21029 -0.434995
              CHANNELS 3 Zrotation Xrotation Yrotation
              End Site
              {
                OFFSET 0 0 0
              }
            }
          }
          JOINT R_Humerus_RIGMESH
          {
            OFFSET 39.9064 -0.000257932 -6.47351e-005
            CHANNELS 3 Zrotation Xrotation Yrotation
            End Site
            {
              OFFSET 0 0 0
            }
          }
        }
        JOINT R_Shoulder_RIGMESH
        {
          OFFSET -3.24498e-005 -0.000608592 -0.000527677
          CHANNELS 3 Zrotation Xrotation Yrotation
          End Site
          {
            OFFSET 0 0 0
          }
        }
      }
      JOINT Character1_Neck
      {
        OFFSET 0 30.836 0.626
        CHANNELS 3 Zrotation Xrotation Yrotation
        JOINT Character1_Head
        {
          OFFSET 0 8.074 3.498
          CHANNELS 3 Zrotation Xrotation Yrotation
          End Site
          {
            OFFSET 0 -0.00153379 1.54668e-005
          }
        }
        JOINT Neck_RIGMESH
        {
          OFFSET 0.510865 0.0542061 1.47629
          CHANNELS 3 Zrotation Xrotation Yrotation
          End Site
          {
            OFFSET 0 0 0
          }
        }
      }
      JOINT Torso_RIGMESH
      {
        OFFSET 0 -0.000828813 -0.000380861
        CHANNELS 3 Zrotation Xrotation Yrotation
        End Site
        {
          OFFSET 0 0 0
        }
      }
    }
    JOINT Spine_RIGMESH
    {
      OFFSET -0.141554 -0.0672963 -0.342265
      CHANNELS 3 Zrotation Xrotation Yrotation
      End Site
      {
        OFFSET 0 0 0
      }
    }
  }
  JOINT Character1_RightUpLeg
  {
    OFFSET -9.035 -4.63425 1.845
    CHANNELS 3 Zrotation Xrotation Yrotation
    JOINT Character1_RightLeg
    {
      OFFSET -0.919521 -40.345 1.155
      CHANNELS 3 Zrotation Xrotation Yrotation
      JOINT Character1_RightFoot
      {
        OFFSET 1.95452 -45.2655 -4.18888
        CHANNELS 3 Zrotation Xrotation Yrotation
        JOINT Character1_RightToeBase
        {
          OFFSET 1.87056 -6.69517 14.7145
          CHANNELS 3 Zrotation Xrotation Yrotation
          End Site
          {
            OFFSET 0 0 0
          }
        }
        JOINT R_Talus_RIGMESH
        {
          OFFSET 8 -7.75529 4.18888
          CHANNELS 3 Zrotation Xrotation Yrotation
          End Site
          {
            OFFSET 0 0 0
          }
        }
      }
      JOINT R_Tibia_RIGMESH
      {
        OFFSET 0 0 0
        CHANNELS 3 Zrotation Xrotation Yrotation
        End Site
        {
          OFFSET 0 0 0
        }
      }
    }
    JOINT R_Femur_RIGMESH
    {
      OFFSET 0 0 0
      CHANNELS 3 Zrotation Xrotation Yrotation
      End Site
      {
        OFFSET 0 0 0
      }
    }
  }
  JOINT Character1_LeftUpLeg
  {
    OFFSET 9.035 -4.63425 1.845
    CHANNELS 3 Zrotation Xrotation Yrotation
    JOINT Character1_LeftLeg
    {
      OFFSET 0.919521 -40.345 1.155
      CHANNELS 3 Zrotation Xrotation Yrotation
      JOINT Character1_LeftFoot
      {
        OFFSET -1.95452 -45.2655 -4.18888
        CHANNELS 3 Zrotation Xrotation Yrotation
        JOINT Character1_LeftToeBase
        {
          OFFSET -1.87056 -6.69517 14.7145
          CHANNELS 3 Zrotation Xrotation Yrotation
          End Site
          {
            OFFSET 0 0 0
          }
        }
        JOINT L_Talus_RIGMESH
        {
          OFFSET -8 -7.75529 4.18888
          CHANNELS 3 Zrotation Xrotation Yrotation
          End Site
          {
            OFFSET 0 0 0
          }
        }
      }
      JOINT L_Tibia_RIGMESH
      {
        OFFSET 0 0 0
        CHANNELS 3 Zrotation Xrotation Yrotation
        End Site
        {
          OFFSET 0 0 0
        }
      }
    }
    JOINT L_Femur_RIGMESH
    {
      OFFSET 0 0 0
      CHANNELS 3 Zrotation Xrotation Yrotation
      End Site
      {
        OFFSET 0 0 0
      }
    }
  }
  JOINT Pelvis_RIGMESH
  {
    OFFSET 0 0 0
    CHANNELS 3 Zrotation Xrotation Yrotation
    End Site
    {
      OFFSET 0 0 0
    }
  }
}
MOTION
Frames:	4
Frame Time:	0.00833333
14.527 99.9072 -80.1027 -3.23945 5.82724 2.78637 1.49089e-016 7.95139e-016 -3.97569e-016 9.63259 9.74626 -2.91234 -2.59667 5.52378 -2.82832 -64.1877 26.3707 3.7704 9.89844e-005 0.000191851 -76.2769 9.98306 3.97702 -0.0298425 -3.18055e-015 6.36111e-015 3.18055e-015 -3.18055e-015 0 -0 -5.96354e-016 0 -3.97569e-016 3.9523 3.58223 1.20964 51.5634 6.28761 -9.79471 -0.0016655 -0.000552169 102.145 -0.649058 4.64995 -2.17819 3.18055e-015 2.38542e-015 -0 4.77083e-015 -6.36111e-015 3.18055e-015 -8.44835e-016 -3.18055e-015 7.95139e-016 6.95746e-016 0 -0 -3.19915 -11.9414 -1.34864 -2.21638 -14.2674 0.0289755 6.95746e-016 0 -0 3.18253 3.23368 -0.761793 1.73006 -33.6871 -8.55602 0.692201 29.7362 -0.179695 -2.41009 -0.887214 1.60101 0.237335 1.56324 -0.0334086 2.85753e-016 -1.98785e-016 -3.97569e-016 -4.96962e-017 7.95139e-016 -2.38542e-015 3.97569e-016 0 -0 8.46652 -21.4977 11.0698 -177.53 82.2504 177.562 -2.90255 40.195 11.166 -0.245802 -8.75788 -0.0193739 1.59028e-015 9.54166e-015 2.38542e-015 1.59028e-015 0 -0 -3.97569e-016 1.59028e-015 -0 1.49089e-016 7.95139e-016 -3.97569e-016 
14.6281 99.4241 -75.8777 -4.55506 5.59056 1.37942 1.26725e-015 7.95139e-016 1.98785e-016 11.1711 10.7279 -0.618931 -3.84707 6.20271 -2.73191 -64.4954 25.5151 4.92654 8.53028e-005 0.000241075 -72.6567 10.172 1.97213 0.150493 -0 -6.36111e-015 -0 4.77083e-015 -6.36111e-015 -3.18055e-015 -5.96354e-016 6.36111e-015 1.98785e-016 4.54584 3.42892 1.85305 49.6091 4.85466 -6.2307 -0.00167039 -0.000528955 101.627 -1.48459 5.55817 -2.21019 -3.18055e-015 -2.78299e-015 1.59028e-015 -9.54166e-015 -3.18055e-015 -3.18055e-015 -3.57191e-015 0 -9.69075e-016 3.97569e-016 -3.18055e-015 -1.49089e-016 -4.24733 -12.4535 -2.28658 -3.19169 -15.7281 -0.000850853 3.97569e-016 -3.18055e-015 -1.49089e-016 3.87009 3.5472 0.108658 4.51343 -32.3808 -5.6979 0.619549 32.7438 -0.17871 -3.02161 -4.52744 0.364826 0.549954 0.415857 -0.0566286 -6.21202e-017 0 -0 -6.95746e-016 0 7.95139e-016 -0 0 7.95139e-016 11.1928 -25.6322 13.1168 -178.225 78.345 178.147 -1.00343 39.9304 10.9681 -0.242005 -8.62289 -0.0191959 0 6.36111e-015 -0 -1.59028e-015 1.59028e-015 -1.19271e-015 0 3.18055e-015 -0 1.26725e-015 7.95139e-016 1.98785e-016 
14.7289 98.9398 -71.6394 -5.88384 5.42163 -0.0217256 1.07817e-015 7.95139e-016 -2.01891e-016 12.6985 11.7105 1.66778 -5.1006 6.88163 -2.63556 -64.7659 24.653 6.06769 6.85409e-005 0.000289335 -69.0366 10.3873 -0.0380409 0.3172 -3.18055e-015 0 6.36111e-015 -6.36111e-015 -6.36111e-015 -6.36111e-015 -6.70898e-016 3.18055e-015 -0 5.14206 3.27514 2.49627 47.8402 3.37634 -2.68444 -0.00167508 -0.000505615 101.108 -2.32351 6.46582 -2.24111 -3.18055e-015 2.38542e-015 -1.59028e-015 3.18055e-015 -3.18055e-015 3.18055e-015 -0 0 7.95139e-016 -9.93923e-016 -3.18055e-015 -0 -5.28316 -12.9688 -3.23552 -4.07158 -17.1748 -0.0368138 -9.93923e-016 -3.18055e-015 -0 4.47164 3.86695 0.940857 7.2945 -31.0093 -2.86316 0.545579 35.7122 -0.172167 -3.6481 -8.14671 -0.953229 0.862702 -0.731311 -0.0679409 1.2424e-016 0 7.95139e-016 9.93129e-032 -4.77083e-015 1.19271e-015 3.97569e-016 0 -0 14.0403 -29.7946 15.2602 -178.571 74.4278 178.369 0.861946 39.732 10.8045 -0.237851 -8.48789 -0.0188973 6.62086e-032 -3.18055e-015 1.19271e-015 -3.18055e-015 -3.18055e-015 3.97569e-016 8.82781e-032 3.18055e-015 -1.59028e-015 1.07817e-015 7.95139e-016 -2.01891e-016 
14.8281 98.4565 -67.3867 -7.22342 5.3207 -1.41486 2.48481e-016 0 -3.97569e-016 14.2159 12.6932 3.94764 -6.3571 7.56068 -2.5392 -64.9998 23.7855 7.19465 4.87649e-005 0.000336441 -65.4165 10.6281 -2.05316 0.471474 -1.59028e-015 0 -0 4.77083e-015 -6.36111e-015 -0 4.96962e-017 -6.36111e-015 -2.98177e-016 5.74109 3.12107 3.13931 46.2601 1.86983 0.847269 -0.00167955 -0.000482301 100.589 -3.16583 7.37291 -2.27098 3.03456e-032 1.09332e-015 -1.59028e-015 -4.77083e-015 -3.18055e-015 4.77083e-015 6.95746e-016 -6.36111e-015 3.97569e-016 2.48481e-016 0 -7.95139e-016 -6.30593 -13.4864 -4.19505 -4.62152 -18.2521 -0.111803 2.48481e-016 0 -7.95139e-016 4.80595 4.11787 1.6577 10.0674 -29.5466 -0.0564406 0.469753 38.613 -0.159571 -4.29937 -11.7409 -2.35576 1.17594 -1.87816 -0.0673179 3.72721e-016 -3.97569e-016 1.59028e-015 -6.95746e-016 1.59028e-015 -0 -0 -3.18055e-015 -0 17.0397 -33.9881 17.5313 -178.776 70.4992 178.434 2.69999 39.61 10.6669 -0.234378 -8.35293 -0.0184959 7.95139e-016 6.36111e-015 -7.95139e-016 1.59028e-015 3.18055e-015 3.97569e-016 -1.59028e-015 9.54166e-015 -0 2.48481e-016 0 -3.97569e-016 
